# xmcd
#
# Track frame offsets:
# 150
# 16759
# 29834
# 45382
# 61982
# 79405
# 94267
# 110547
# 128457
# 145527
# 161388
# 177572
# 191850
# 207090
#
# Disc length: 3040 seconds
#
#
# Revision: 0
# Processed by: cddbd v1.5.2PL0 Copyright (c) Steve Scherf et al.
# Submitted via: FreeRIP 2.951 
#
DISCID=ba0bde0e
DTITLE=João Bosco and Vinícius - João Bosco and Vinícius 
DYEAR=2008
DGENRE=Sertanejo Universitário
TTITLE0=Querendo te encontrar
TTITLE1=Rosas e versos
TTITLE2=Quero provar que te amo
TTITLE3=Magia
TTITLE4=Faz de conta
TTITLE5=Saudade de nos dois
TTITLE6=Sonhos de brinquedo
TTITLE7=Loucuras de paixão
TTITLE8=Hoje eu quero te amar
TTITLE9=Tem alguem que te quer
TTITLE10=Não precisa perdão
TTITLE11=Contra senso
TTITLE12=Pra sempre contigo
TTITLE13=So quero te dizer
EXTD=jdsa@uai.com.br
EXTT0=
EXTT1=
EXTT2=
EXTT3=
EXTT4=
EXTT5=
EXTT6=
EXTT7=
EXTT8=
EXTT9=
EXTT10=
EXTT11=
EXTT12=
EXTT13=
PLAYORDER=
